<svg width="21" height="21" viewBox="0 0 21 21" xmlns="http://www.w3.org/2000/svg"><title>read</title><g fill-rule="nonzero" fill="none"><path d="M19.855 8.156l-3.762-3.014c-.462-.697-1.06-1.293-1.47-1.695l-.168-.166C12.25 1.077 11.32.89 10.55.89H4.493c-.443 0-1.083.323-1.083.907V5.71L.328 8.11c-.145.115-.23.29-.23.474v11.69c0 .332.267.6.6.6H19.48c.332 0 .6-.268.6-.6V8.625c0-.18-.083-.354-.225-.468z" fill="#333"/><path d="M5.255 12.923l-3.96 5.496V9.816l3.96 3.106zm1.13.482h7.408l4.517 6.27H1.868l4.518-6.27zm8.54-.48L18.88 9.85v8.567l-3.956-5.493z" fill="#CCC"/><path d="M18.513 8.618l-1.75 1.36V7.215l1.75 1.403zm-4.905-4.49l.176.175c.234.23.568.562.887.94-.616-.172-1.267-.22-1.862-.244-.025-.437-.103-1.19-.32-1.91.317.268.686.605 1.12 1.04z" fill="#FFF"/><path d="M10.298 2.09h.25c.128 0 .297.002.555.096l.047.05c.644.633.873 2.227.873 3.145 0 .215.17.392.384.4l.13.005c.98.037 2.196.085 2.927.738.06.174.104.348.104.515l-.004-.01v3.882l-1.67 1.296H6.287L4.61 10.89V2.104l5.688-.014zM3.41 9.95L1.67 8.586 3.41 7.23" fill="#FFF"/></g></svg>