<svg width="21" height="21" viewBox="0 0 21 21" xmlns="http://www.w3.org/2000/svg"><title>unread</title><g fill-rule="nonzero" fill="none"><path d="M20.52 7.498c-.155-.155-.358-.233-.562-.233h-5.55l1.238-1.633c.137-.18.16-.423.06-.625-.1-.204-.308-.33-.535-.33h-1.743V1.47c0-.33-.267-.596-.596-.596H8.84c-.33 0-.596.267-.596.596v3.204H6.467c-.227 0-.434.128-.534.33-.1.203-.078.446.06.626l1.236 1.633H1.68c-.204 0-.407.078-.562.233-.156.155-.233.358-.233.562v12.017c0 .203.077.407.233.562.15.148.35.232.562.232h18.278c.204 0 .407-.078.562-.233.15-.15.233-.352.233-.563V8.06c0-.21-.083-.413-.233-.562z" fill="#27323A"/><path d="M8.838 5.868c.33 0 .596-.267.596-.596V2.068h2.8v3.204c0 .33.268.596.597.596h1.142c-.877 1.153-2.54 3.347-3.153 4.155-.614-.808-2.278-3-3.153-4.155h1.17z" fill="#FFF"/><path d="M8.134 8.457l2.21 2.912c.113.148.29.235.475.235s.362-.087.474-.236l2.21-2.913h5.048l-7.77 6.698-7.707-6.698h5.06z" fill="#79CCBF"/><path d="M2.077 9.168l4.102 3.565-4.103 5.696V9.167zm.568 10.512l4.438-6.16L10 16.053c.226.198.516.307.82.307.3 0 .592-.108.817-.305l2.918-2.536 4.438 6.16H2.645zm16.916-1.25l-4.1-5.697 4.1-3.565v9.26z" fill="#F4CE73"/></g></svg>