<?xml version="1.0" encoding="utf-8"?>
<!-- Generator: Adobe Illustrator 21.0.0, SVG Export Plug-In . SVG Version: 6.00 Build 0)  -->
<svg version="1.1" id="Layer_1" xmlns="http://www.w3.org/2000/svg" xmlns:xlink="http://www.w3.org/1999/xlink" x="0px" y="0px"
	 viewBox="0 0 48 48" style="enable-background:new 0 0 48 48;" xml:space="preserve">
<style type="text/css">
	.st0{fill-rule:evenodd;clip-rule:evenodd;fill:#8DC63F;}
	.st1{opacity:0.5;fill-rule:evenodd;clip-rule:evenodd;fill:#FFFFFF;}
	.st2{fill-rule:evenodd;clip-rule:evenodd;fill:#FFFFFF;}
</style>
<path class="st0" d="M24,0C10.7,0,0,10.7,0,24s10.7,24,24,24s24-10.7,24-24S37.3,0,24,0"/>
<path class="st1" d="M35.4,25.4c-0.1,0-0.3,0.1-0.5,0.4l-1.1,1.4c-0.3,0.4-0.8,0.6-1.3,0.6c-0.5,0-0.9-0.3-1.2-0.8L27.7,21l-6,9.3
	c-0.3,0.4-0.7,0.7-1.2,0.7c-0.5,0-0.9-0.2-1.2-0.7l-3.7-5.5l-1.2,1.5c-0.4,0.4-0.8,0.9-1.7,0.9H10v4c0,1.7,1.4,2.8,3,2.8h22
	c1.7,0,3-1.2,3-2.8v-5.8H35.4z"/>
<path class="st2" d="M12.6,25.5c0.1,0,0.2,0,0.4-0.2l1.4-1.7c0.3-0.4,0.8-0.6,1.3-0.6c0.5,0,0.9,0.3,1.2,0.7l3.6,5.4l6-9.4
	c0.3-0.5,0.7-0.7,1.2-0.7c0.5,0,0.9,0.3,1.2,0.7l3.7,6.2l0.9-1.1c0.5-0.7,1.2-1.1,1.9-1.1H38V18c0-1.7-1.4-3-3-3H13
	c-1.7,0-3,1.4-3,3v7.5H12.6z"/>
</svg>
