<?xml version="1.0" encoding="utf-8"?>
<!-- Generator: Adobe Illustrator 19.2.0, SVG Export Plug-In . SVG Version: 6.00 Build 0)  -->
<svg version="1.1" id="Layer_1" xmlns="http://www.w3.org/2000/svg" xmlns:xlink="http://www.w3.org/1999/xlink" x="0px" y="0px"
	 viewBox="0 0 30 27.7" style="enable-background:new 0 0 30 27.7;" xml:space="preserve">
<style type="text/css">
	.st0{fill:#8DC63F;}
</style>
<path class="st0" d="M0,18.9C0,10.7,5.1,3.6,8.3,0.7c1-0.9,1.8-0.8,2.4-0.2L12,1.8c0.5,0.5,0.4,1.5-0.6,2.4c-1,0.9-6.1,5.2-6.1,12.4
	c0.4-0.1,0.8-0.1,1.2-0.1c3.1,0,5.6,2.6,5.6,5.6c0,3.1-2.6,5.6-5.6,5.6C3.3,27.7,0,25.9,0,18.9z M17.7,18.9c0-8.2,5.1-15.2,8.3-18.2
	c1-0.9,1.8-0.8,2.4-0.2l1.4,1.4c0.5,0.5,0.4,1.5-0.6,2.4S23,9.4,23,16.6c0.4-0.1,0.8-0.1,1.2-0.1c3,0,5.6,2.6,5.6,5.6
	c0,3.1-2.6,5.6-5.6,5.6C21.1,27.7,17.7,25.9,17.7,18.9z"/>
</svg>
